Coordinates
version=1
nRows=16
nColumns=22
inDegrees=yes

Units are S.I. units (second, meters, Newtons, ...)
If the header above contains a line with 'inDegrees', this indicates whether rotational values are in degrees (yes) or radians (no).

endheader
time	pelvis_tilt	pelvis_list	pelvis_rotation	pelvis_tx	pelvis_ty	pelvis_tz	hip_flexion_r	hip_adduction_r	hip_rotation_r	knee_angle_r	ankle_angle_r	subtalar_angle_r	hip_flexion_l	hip_adduction_l	hip_rotation_l	knee_angle_l	ankle_angle_l	subtalar_angle_l	lumbar_extension	lumbar_bending	lumbar_rotation
      1.81000000	      8.41384606	      1.89306377	     47.80628201	      0.80904766	      0.91858813	      0.85839179	     16.40186276	     -0.97606842	     -3.19947779	     -7.76054077	      2.76064009	     15.84234808	    -12.43929186	      2.17666756	      6.79268612	    -22.59386077	     30.94595314	    -17.75572534	    -15.30907299	      7.03015602	     -9.83169676
      1.82000000	      8.59226131	      1.84078207	     48.47818938	      0.81662100	      0.91721453	      0.85233593	     16.33753053	     -0.50388375	     -2.71106222	     -7.46663791	      2.92939310	     15.96503721	    -12.94085605	      1.70629857	      7.13671323	    -23.02715303	     31.25003612	    -17.60589978	    -15.24252104	      7.19846545	     -9.76934282
      1.83000000	      8.76733486	      1.79460002	     49.13447500	      0.82431559	      0.91593308	      0.84612319	     16.31075779	     -0.04331533	     -2.28988167	     -7.59343341	      3.02580464	     15.90679002	    -13.43734882	      1.24410080	      7.46079603	    -23.48547976	     31.43209316	    -17.45481385	    -15.15262083	      7.36129968	     -9.73030586
      1.84000000	      8.91067047	      1.74913208	     49.78739758	      0.83211524	      0.91472030	      0.83976655	     16.34411667	      0.38847782	     -1.93507593	     -8.10543507	      3.02165083	     15.48899711	    -13.88320830	      0.80281784	      7.76055847	    -24.00103859	     31.49150132	    -17.23431450	    -15.01532914	      7.49833506	     -9.72120711
      1.85000000	      9.00109769	      1.69565722	     50.44817984	      0.83997730	      0.91355779	      0.83329973	     16.45171571	      0.77942228	     -1.61707651	     -8.94125286	      2.88736188	     14.87248241	    -14.22248819	      0.39624902	      8.05931950	    -24.63249165	     31.47403308	    -17.03724980	    -14.81498374	      7.59470702	     -9.74704107
      1.86000000	      9.07225860	      1.62319179	     51.12326755	      0.84793059	      0.91252441	      0.82668728	     16.58781804	      1.16336059	     -1.32473401	     -9.99720172	      2.55299643	     14.12270314	    -14.47515554	     -0.01700356	      8.35534066	    -25.36801183	     31.30075999	    -16.80828070	    -14.55797681	      7.68809402	     -9.80602262
      1.87000000	      9.10686684	      1.56957211	     51.77312291	      0.85597762	      0.91166951	      0.81998575	     16.76102998	      1.50748812	     -1.01710107	    -11.26547591	      2.12407037	     13.12331120	    -14.66099476	     -0.38916721	      8.60297830	    -26.19854126	     30.91939899	    -16.46456261	    -14.28099768	      7.72902389	     -9.86368387
      1.88000000	      9.12269774	      1.49624716	     52.44343841	      0.86405827	      0.91101354	      0.81315776	     16.94681625	      1.83704804	     -0.71842223	    -12.61291005	      1.53907685	     12.10900412	    -14.72486366	     -0.76133476	      8.88296143	    -27.18214922	     30.34184625	    -16.04313669	    -13.95587654	      7.76818843	     -9.94480545
      1.89000000	      9.13242335	      1.42655146	     53.11144118	      0.87217275	      0.91061874	      0.80620897	     17.12606416	      2.14445049	     -0.44273487	    -14.01700205	      0.93687805	     11.08475534	    -14.69215697	     -1.12037302	      9.17118535	    -28.31743109	     29.51082104	    -15.50375748	    -13.61786650	      7.79904777	    -10.02447857
      1.90000000	      9.15972856	      1.36422536	     53.77243764	      0.88031883	      0.91052388	      0.79910096	     17.26594549	      2.44031175	     -0.23257694	    -15.43274386	      0.43894833	     10.09255509	    -14.57596095	     -1.48118659	      9.44971415	    -29.60796106	     28.36913377	    -14.81985879	    -13.28483004	      7.84307761	    -10.06665163
      1.91000000	      9.19874736	      1.32488814	     54.43671107	      0.88843762	      0.91072789	      0.79184772	     17.34310211	      2.70060235	     -0.10294331	    -16.81962033	      0.06718478	      9.25784022	    -14.35138858	     -1.82902953	      9.70902170	    -31.09581808	     26.91386208	    -14.02126241	    -12.97162792	      7.88838004	    -10.12021646
      1.92000000	      9.27097595	      1.31956199	     55.09928615	      0.89652466	      0.91123791	      0.78442350	     17.31034981	      2.93551767	     -0.07444842	    -18.13368995	     -0.11314975	      8.58989640	    -14.03969740	     -2.17515552	      9.92792697	    -32.77424874	     25.10011667	    -13.08910405	    -12.70255145	      7.95002204	    -10.16011085
      1.93000000	      9.38668857	      1.35304026	     55.76065068	      0.90455666	      0.91203392	      0.77684441	     17.13214915	      3.15301018	     -0.14924011	    -19.32374672	     -0.09361096	      8.10839148	    -13.63835002	     -2.52932767	     10.09373918	    -34.64680127	     22.90596166	    -12.04173053	    -12.49307220	      8.03559545	    -10.17620618
      1.94000000	      9.54517427	      1.42170204	     56.42370678	      0.91249856	      0.91306520	      0.76915745	     16.79943695	      3.35996514	     -0.32617644	    -20.35858670	      0.12264537	      7.79820989	    -13.12925374	     -2.89769437	     10.20017157	    -36.71433880	     20.34332708	    -10.89768330	    -12.34792462	      8.14653493	    -10.16588521
      1.95000000	      9.73643048	      1.52075835	     57.09415266	      0.92028906	      0.91426673	      0.76141015	     16.32388567	      3.55322664	     -0.61788907	    -21.23140476	      0.52163098	      7.62711851	    -12.49148664	     -3.27559398	     10.25795244	    -38.96832874	     17.45487022	     -9.71238501	    -12.26394428	      8.28005493	    -10.12834666
      1.96000000	      9.96278341	      1.63037016	     57.77139595	      0.92792129	      0.91557229	      0.75368970	     15.71872958	      3.76113747	     -0.99834541	    -21.92205645	      1.06579932	      7.53827890	    -11.70180022	     -3.68275322	     10.26863674	    -41.39720818	     14.33384609	     -8.50619465	    -12.23501725	      8.44281295	    -10.05796967
